<svg viewBox="0 0 90 84" fill="none" xmlns="http://www.w3.org/2000/svg">    <path fill-rule="evenodd" clip-rule="evenodd" d="M73.4652 80.6617C73.5983 81.2871 73.4322 81.9374 73.0135 82.4298C72.5948 82.9221 71.9688 83.2032 71.3116 83.194C70.9449 83.1904 70.5852 83.0965 70.2661 82.921L44.9229 68.9251L19.5797 82.921C18.839 83.3336 17.9181 83.2853 17.2275 82.7976C16.5369 82.3098 16.2053 81.4736 16.3806 80.6617L22.2482 52.9125L0.712731 33.8216C0.0804729 33.2654 -0.157246 32.4005 0.105391 31.6121C0.368027 30.8236 1.08218 30.2581 1.92996 30.1673L30.9092 27.0133L42.9566 1.22019C43.3116 0.476125 44.0788 0 44.9229 0C45.7669 0 46.5342 0.476125 46.8892 1.22019L58.9365 27.0133L87.9158 30.1673C88.7635 30.2581 89.4777 30.8236 89.7403 31.6121C90.003 32.4005 89.7653 33.2654 89.133 33.8216L67.5975 52.9125L73.4652 80.6617ZM43.8501 64.6646C44.5172 64.2935 45.3366 64.2935 46.0037 64.6646L68.257 76.9622L63.1072 52.5945C62.9491 51.8663 63.1983 51.1111 63.7626 50.608L82.6764 33.8372L57.2396 31.0623C56.483 30.9816 55.8255 30.5211 55.5074 29.8493L44.9269 7.16468L34.3464 29.8493C34.0283 30.5211 33.3708 30.9816 32.6142 31.0623L7.17741 33.8372L26.0912 50.608C26.6555 51.1111 26.9047 51.8663 26.7466 52.5945L21.5968 76.9622L43.8501 64.6646Z" fill="#B1B1B1"/></svg>